HIERARCHY
ROOT Hips
{
  OFFSET 48.3107 85.4897 -1.35933
  CHANNELS 6 Xposition Yposition Zposition Zrotation Xrotation Yrotation
  JOINT spine
  {
    OFFSET 0 6.3926 0.367606
    CHANNELS 3 Zrotation Xrotation Yrotation
    JOINT spine1
    {
      OFFSET 0 9.17611 0
      CHANNELS 3 Zrotation Xrotation Yrotation
      JOINT spine2
      {
        OFFSET 0 8.79238 0
        CHANNELS 3 Zrotation Xrotation Yrotation
        JOINT Neck
        {
          OFFSET 0 22.5737 1.07624
          CHANNELS 3 Zrotation Xrotation Yrotation
          JOINT Head
          {
            OFFSET 0 6.82011 0
            CHANNELS 3 Zrotation Xrotation Yrotation
            End Site
            {
              OFFSET 0 16.5085 -5.44427
            }
          }
        }
        JOINT RightShoulder
        {
          OFFSET -3.70221 9.49509 -0.515508
          CHANNELS 3 Zrotation Xrotation Yrotation
          JOINT RightArm
          {
            OFFSET 0 12.4537 0
            CHANNELS 3 Zrotation Xrotation Yrotation
            JOINT RightArmRoll
            {
              OFFSET 0 6.28686 0
              CHANNELS 3 Zrotation Xrotation Yrotation
              JOINT RightForeArm
              {
                OFFSET 0 18.3114 0
                CHANNELS 3 Zrotation Xrotation Yrotation
                JOINT RightForeArmRoll
                {
                  OFFSET 0 7.05483 0
                  CHANNELS 3 Zrotation Xrotation Yrotation
                  JOINT RightHand
                  {
                    OFFSET 0 14.1575 0
                    CHANNELS 3 Zrotation Xrotation Yrotation
                    End Site
                    {
                      OFFSET 0 0 0
                    }
                  }
                }
              }
            }
          }
        }
        JOINT LeftShoulder
        {
          OFFSET 3.70221 9.49509 -0.515508
          CHANNELS 3 Zrotation Xrotation Yrotation
          JOINT LeftArm
          {
            OFFSET 0 12.4537 0
            CHANNELS 3 Zrotation Xrotation Yrotation
            JOINT LeftArmRoll
            {
              OFFSET 0 6.28686 0
              CHANNELS 3 Zrotation Xrotation Yrotation
              JOINT LeftForeArm
              {
                OFFSET 0 18.3114 0
                CHANNELS 3 Zrotation Xrotation Yrotation
                JOINT LeftForeArmRoll
                {
                  OFFSET 0 7.05482 0
                  CHANNELS 3 Zrotation Xrotation Yrotation
                  JOINT LeftHand
                  {
                    OFFSET 0 14.1575 0
                    CHANNELS 3 Zrotation Xrotation Yrotation
                    End Site
                    {
                      OFFSET 0 0 0
                    }
                  }
                }
              }
            }
          }
        }
      }
    }
  }
  JOINT RightUpLeg
  {
    OFFSET -5.66616 -1.03903 -0.87161
    CHANNELS 3 Zrotation Xrotation Yrotation
    JOINT RightUpLegRoll
    {
      OFFSET 0 16.6005 0
      CHANNELS 3 Zrotation Xrotation Yrotation
      JOINT RightLeg
      {
        OFFSET 0 -20.5572 0
        CHANNELS 3 Zrotation Xrotation Yrotation
        JOINT RightLegRoll
        {
          OFFSET 0 20.6244 0
          CHANNELS 3 Zrotation Xrotation Yrotation
          JOINT RightFoot
          {
            OFFSET 0 17.1664 0
            CHANNELS 3 Zrotation Xrotation Yrotation
            JOINT RightToeBase
            {
              OFFSET 0 14.3502 0
              CHANNELS 3 Zrotation Xrotation Yrotation
              End Site
              {
                OFFSET 0.00608252 6.94971 -0.801061
              }
            }
          }
        }
      }
    }
  }
  JOINT LeftUpLeg
  {
    OFFSET 5.66616 -1.03903 -0.87161
    CHANNELS 3 Zrotation Xrotation Yrotation
    JOINT LeftUpLegRoll
    {
      OFFSET 0 16.6006 0
      CHANNELS 3 Zrotation Xrotation Yrotation
      JOINT LeftLeg
      {
        OFFSET 0 20.5571 0
        CHANNELS 3 Zrotation Xrotation Yrotation
        JOINT LeftLegRoll
        {
          OFFSET 0 20.8151 0
          CHANNELS 3 Zrotation Xrotation Yrotation
          JOINT LeftFoot
          {
            OFFSET 0 16.9757 0
            CHANNELS 3 Zrotation Xrotation Yrotation
            JOINT LeftToeBase
            {
              OFFSET 0 14.3502 0
              CHANNELS 3 Zrotation Xrotation Yrotation
              End Site
              {
                OFFSET -0.0272592 6.94971 -0.80106
              }
            }
          }
        }
      }
    }
  }
}
MOTION
Frames: 13
Frame Time: 0.00208333
44.2224 85.6418 0.729242 -2.41773 -3.45101 -1.94277 0.425416 -1.17944 -0.0376258 0.843497 1.64265 -0.115247 0.845514 3.28761 -0.129376 -3.88791 6.027 1.40081 2.45057 4.96354 0.494218 55.8687 1.55206 1.42285 112.327 13.9776 2.02773 -9.87314e-008 9.28793e-008 -3.61156e-006 14.4278 9.61483 -1.62848 1.30744e-006 1.28815e-007 -3.0029 8.0289 -4.95141 0.697683 -54.4762 -3.51429 1.78679 -111.439 16.9701 3.69826 -1.61681e-005 -5.67665e-006 3.51474e-006 -13.0088 8.68796 1.52501 1.18805e-005 -1.96975e-006 3.00002 -8.02886 -4.95142 -0.697668 175.762 -2.76983 0.857332 180 7.01524e-015 178.829 176.815 4.63966 179.783 -7.92036e-007 2.66559e-006 0.0398131 -18.8053 68.0353 19.5657 8.12779 25.2332 -3.48389 -172.634 -3.61792 -1.45132 4.54188e-006 -4.6773e-006 -1.14709 -1.5683 -8.67105 0.397353 -3.98429e-006 -1.802e-007 -0.220309 21.7955 71.7623 -23.2328 -8.1365 25.2327 3.48765 
44.2223 85.6449 0.725922 -2.41735 -3.45517 -1.94073 0.425362 -1.1793 -0.0376225 0.844102 1.64208 -0.115267 0.846126 3.28705 -0.129415 -3.89573 6.0277 1.40601 2.45184 4.97353 0.497204 55.8669 1.55516 1.42514 112.332 13.9859 1.99638 -9.87315e-008 9.28793e-008 -3.61156e-006 14.4404 9.64086 -1.63187 1.30744e-006 1.28815e-007 -3.0029 8.0289 -4.95141 0.697683 -54.4767 -3.52319 1.79287 -111.441 16.9713 3.70466 -1.61681e-005 -5.67665e-006 3.51474e-006 -13.0127 8.6973 1.52698 1.18805e-005 -1.96975e-006 3.00002 -8.02886 -4.95142 -0.697668 175.761 -2.77286 0.860161 180 7.01524e-015 178.829 176.812 4.64108 179.783 -7.92036e-007 2.66559e-006 0.0398131 -18.8047 68.0347 19.5651 8.12779 25.2332 -3.48389 -172.633 -3.62048 -1.45242 4.54188e-006 -4.6773e-006 -1.14709 -1.56903 -8.67023 0.397266 -3.98429e-006 -1.802e-007 -0.220311 21.7931 71.7598 -23.2315 -8.1365 25.2327 3.48765 
44.2269 85.6448 0.731162 -2.41696 -3.45926 -1.93873 0.425282 -1.17915 -0.0376285 0.844713 1.64149 -0.115291 0.846745 3.28646 -0.129459 -3.90352 6.02822 1.41117 2.45321 4.98358 0.500169 55.8652 1.55811 1.42731 112.338 13.9943 1.96532 -9.87314e-008 9.28793e-008 -3.61156e-006 14.4529 9.66681 -1.63525 1.30744e-006 1.28815e-007 -3.0029 8.0289 -4.95141 0.697683 -54.4772 -3.53252 1.79924 -111.443 16.9724 3.71169 -1.61681e-005 -5.67665e-006 3.51474e-006 -13.0169 8.7071 1.52906 1.18805e-005 -1.96975e-006 3.00002 -8.02886 -4.95142 -0.697668 175.76 -2.77579 0.863128 180 7.01524e-015 178.829 176.809 4.64253 179.783 -7.92036e-007 2.66559e-006 0.0398131 -18.8042 68.034 19.5645 8.12779 25.2332 -3.48389 -172.632 -3.62302 -1.45352 4.54188e-006 -4.6773e-006 -1.14709 -1.56976 -8.6693 0.397181 -3.98429e-006 -1.802e-007 -0.220316 21.7906 71.7572 -23.2301 -8.1365 25.2327 3.48765 
44.2229 85.6438 0.728192 -2.41655 -3.46331 -1.93675 0.425183 -1.17899 -0.037641 0.845328 1.64089 -0.115319 0.847368 3.28585 -0.129507 -3.91129 6.02861 1.4163 2.45465 4.99367 0.50312 55.8638 1.56097 1.42938 112.343 14.0027 1.93448 -9.87315e-008 9.28793e-008 -3.61156e-006 14.4654 9.69272 -1.63864 1.30744e-006 1.28815e-007 -3.0029 8.0289 -4.95141 0.697683 -54.4776 -3.54216 1.8058 -111.446 16.9736 3.71916 -1.61681e-005 -5.67665e-006 3.51474e-006 -13.0215 8.71723 1.53121 1.18805e-005 -1.96975e-006 3.00002 -8.02886 -4.95142 -0.697668 175.758 -2.77866 0.866192 180 7.01524e-015 178.829 176.805 4.64404 179.784 -7.92036e-007 2.66559e-006 0.0398131 -18.8036 68.0333 19.5638 8.12779 25.2332 -3.48389 -172.631 -3.62554 -1.45463 4.54188e-006 -4.6773e-006 -1.14709 -1.57049 -8.6683 0.397098 -3.98429e-006 -1.802e-007 -0.220321 21.788 71.7547 -23.2287 -8.1365 25.2327 3.48765 
44.2224 85.6454 0.720837 -2.41613 -3.46733 -1.9348 0.425074 -1.17882 -0.0376573 0.845946 1.64027 -0.115349 0.847994 3.28524 -0.129557 -3.91905 6.02893 1.42142 2.45613 5.00377 0.506062 55.8624 1.56377 1.43141 112.349 14.0111 1.90375 -9.87315e-008 9.28793e-008 -3.61156e-006 14.4777 9.7186 -1.64202 1.30744e-006 1.28815e-007 -3.0029 8.0289 -4.95141 0.697683 -54.4779 -3.55198 1.81248 -111.448 16.9747 3.72688 -1.61681e-005 -5.67665e-006 3.51474e-006 -13.0262 8.72754 1.53342 1.18805e-005 -1.96975e-006 3.00002 -8.02886 -4.95142 -0.697668 175.757 -2.78149 0.86931 180 7.01524e-015 178.829 176.802 4.64555 179.784 -7.92036e-007 2.66559e-006 0.0398131 -18.803 68.0326 19.5632 8.12779 25.2332 -3.48389 -172.63 -3.62806 -1.45574 4.54188e-006 -4.6773e-006 -1.14709 -1.57122 -8.66726 0.397016 -3.98429e-006 -1.802e-007 -0.220327 21.7854 71.7521 -23.2273 -8.1365 25.2327 3.48765 
44.2185 85.6462 0.721562 -2.41571 -3.47134 -1.93285 0.424962 -1.17865 -0.0376744 0.846564 1.63965 -0.115379 0.848621 3.28462 -0.129608 -3.92681 6.02924 1.42653 2.45762 5.01388 0.509003 55.861 1.56655 1.43342 112.354 14.0194 1.87305 -9.87315e-008 9.28793e-008 -3.61156e-006 14.4901 9.74447 -1.6454 1.30744e-006 1.28815e-007 -3.0029 8.0289 -4.95141 0.697683 -54.4782 -3.56184 1.81919 -111.451 16.9759 3.73467 -1.61681e-005 -5.67665e-006 3.51474e-006 -13.031 8.73791 1.53563 1.18805e-005 -1.96975e-006 3.00002 -8.02886 -4.95142 -0.697668 175.755 -2.78432 0.872442 180 7.01524e-015 178.829 176.798 4.64709 179.785 -7.92036e-007 2.66559e-006 0.0398131 -18.8024 68.0319 19.5626 8.12779 25.2332 -3.48389 -172.629 -3.63058 -1.45684 4.54188e-006 -4.6773e-006 -1.14709 -1.57196 -8.66621 0.396934 -3.98429e-006 -1.802e-007 -0.220333 21.7829 71.7495 -23.2258 -8.1365 25.2327 3.48765 
44.2295 85.6484 0.734969 -2.4153 -3.47537 -1.93089 0.424856 -1.17848 -0.0376897 0.847182 1.63903 -0.115408 0.849247 3.284 -0.129658 -3.93457 6.02958 1.43166 2.45909 5.02398 0.511948 55.8596 1.56937 1.43546 112.36 14.0278 1.84229 -9.87315e-008 9.28793e-008 -3.61156e-006 14.5025 9.77036 -1.64879 1.30744e-006 1.28815e-007 -3.0029 8.0289 -4.95141 0.697683 -54.4785 -3.57161 1.82584 -111.453 16.977 3.74233 -1.61681e-005 -5.67665e-006 3.51474e-006 -13.0357 8.74817 1.53782 1.18805e-005 -1.96975e-006 3.00002 -8.02886 -4.95142 -0.697668 175.754 -2.78716 0.875546 180 7.01524e-015 178.829 176.795 4.6486 179.785 -7.92036e-007 2.66559e-006 0.0398131 -18.8018 68.0312 19.5619 8.12779 25.2332 -3.48389 -172.628 -3.63309 -1.45795 4.54188e-006 -4.6773e-006 -1.14709 -1.57269 -8.66518 0.396851 -3.98429e-006 -1.802e-007 -0.220339 21.7803 71.7469 -23.2244 -8.1365 25.2327 3.48765 
44.2321 85.6445 0.729971 -2.41489 -3.47943 -1.92891 0.424762 -1.17832 -0.0377004 0.847796 1.63843 -0.115435 0.849869 3.2834 -0.129705 -3.94235 6.03001 1.4368 2.46051 5.03405 0.514903 55.8581 1.57225 1.43756 112.365 14.0362 1.81137 -9.87315e-008 9.28793e-008 -3.61156e-006 14.515 9.79628 -1.65218 1.30744e-006 1.28815e-007 -3.0029 8.0289 -4.95141 0.697683 -54.4789 -3.58117 1.83235 -111.455 16.9782 3.74967 -1.61681e-005 -5.67665e-006 3.51474e-006 -13.0402 8.75821 1.53996 1.18805e-005 -1.96975e-006 3.00002 -8.02886 -4.95142 -0.697668 175.752 -2.79004 0.878582 180 7.01524e-015 178.829 176.791 4.6501 179.785 -7.92036e-007 2.66559e-006 0.0398131 -18.8012 68.0305 19.5613 8.12779 25.2332 -3.48389 -172.627 -3.63562 -1.45905 4.54188e-006 -4.6773e-006 -1.14709 -1.57342 -8.6642 0.396768 -3.98429e-006 -1.802e-007 -0.220344 21.7778 71.7443 -23.223 -8.1365 25.2327 3.48765 
44.2164 85.6442 0.695842 -2.4145 -3.48354 -1.9269 0.42469 -1.17817 -0.0377036 0.848405 1.63785 -0.115458 0.850486 3.28282 -0.129748 -3.95015 6.03058 1.44197 2.46184 5.04408 0.517875 55.8564 1.57525 1.43976 112.371 14.0445 1.78021 -9.87315e-008 9.28793e-008 -3.61156e-006 14.5275 9.82225 -1.65557 1.30744e-006 1.28815e-007 -3.0029 8.0289 -4.95141 0.697683 -54.4794 -3.59037 1.83863 -111.457 16.9793 3.75651 -1.61681e-005 -5.67665e-006 3.51474e-006 -13.0444 8.76787 1.542 1.18805e-005 -1.96975e-006 3.00002 -8.02886 -4.95142 -0.697668 175.751 -2.79301 0.881508 180 7.01524e-015 178.829 176.788 4.65152 179.786 -7.92036e-007 2.66559e-006 0.0398131 -18.8006 68.0298 19.5607 8.12779 25.2332 -3.48389 -172.626 -3.63817 -1.46015 4.54188e-006 -4.6773e-006 -1.14709 -1.57415 -8.66331 0.396682 -3.98429e-006 -1.802e-007 -0.220348 21.7753 71.7418 -23.2216 -8.1365 25.2327 3.48765 
44.218 85.644 0.702533 -2.41412 -3.48773 -1.92484 0.424646 -1.17804 -0.0376966 0.849008 1.6373 -0.115476 0.851095 3.28226 -0.129784 -3.95798 6.03135 1.44718 2.46307 5.05406 0.52087 55.8544 1.5784 1.4421 112.377 14.0528 1.74873 -9.87315e-008 9.28793e-008 -3.61156e-006 14.5402 9.8483 -1.65897 1.30744e-006 1.28815e-007 -3.0029 8.0289 -4.95141 0.697683 -54.48 -3.5991 1.8446 -111.459 16.9805 3.76266 -1.61681e-005 -5.67665e-006 3.51474e-006 -13.048 8.77702 1.54393 1.18805e-005 -1.96975e-006 3.00002 -8.02886 -4.95142 -0.697668 175.749 -2.79607 0.884283 180 7.01524e-015 178.829 176.785 4.65291 179.786 -7.92036e-007 2.66559e-006 0.0398131 -18.8001 68.0292 19.5601 8.12779 25.2332 -3.48389 -172.625 -3.64073 -1.46125 4.54188e-006 -4.6773e-006 -1.14709 -1.57487 -8.66253 0.396595 -3.98429e-006 -1.802e-007 -0.22035 21.7728 71.7393 -23.2203 -8.1365 25.2327 3.48765 
44.222 85.644 0.718393 -2.41377 -3.49201 -1.92272 0.42464 -1.17793 -0.0376767 0.849602 1.63678 -0.115486 0.851696 3.28175 -0.129812 -3.96585 6.03238 1.45245 2.46415 5.06397 0.523894 55.8522 1.58175 1.44463 112.383 14.061 1.71682 -9.87315e-008 9.28793e-008 -3.61156e-006 14.5531 9.87445 -1.66238 1.30744e-006 1.28815e-007 -3.0029 8.0289 -4.95141 0.697683 -54.4808 -3.60721 1.85016 -111.461 16.9816 3.76792 -1.61681e-005 -5.67665e-006 3.51474e-006 -13.051 8.78552 1.5457 1.18805e-005 -1.96975e-006 3.00002 -8.02886 -4.95142 -0.697668 175.748 -2.79927 0.886865 180 7.01524e-015 178.829 176.782 4.65422 179.786 -7.92036e-007 2.66559e-006 0.0398131 -18.7996 68.0285 19.5595 8.12779 25.2332 -3.48389 -172.624 -3.64332 -1.46235 4.54188e-006 -4.6773e-006 -1.14709 -1.57558 -8.6619 0.396504 -3.98429e-006 -1.802e-007 -0.22035 21.7705 71.7369 -23.2191 -8.1365 25.2327 3.48765 
44.2219 85.6419 0.709445 -2.41344 -3.4964 -1.92053 0.424678 -1.17785 -0.037641 0.850186 1.63631 -0.115489 0.852285 3.28128 -0.129831 -3.97377 6.03371 1.45778 2.46505 5.0738 0.526953 55.8495 1.58534 1.44737 112.389 14.0692 1.6844 -9.87315e-008 9.28793e-008 -3.61156e-006 14.5662 9.90071 -1.66579 1.30744e-006 1.28815e-007 -3.0029 8.0289 -4.95141 0.697683 -54.4818 -3.61458 1.85524 -111.463 16.9828 3.77211 -1.61681e-005 -5.67665e-006 3.51474e-006 -13.0532 8.79323 1.54728 1.18805e-005 -1.96975e-006 3.00002 -8.02886 -4.95142 -0.697668 175.747 -2.80263 0.889215 180 7.01524e-015 178.829 176.779 4.65542 179.787 -7.92036e-007 2.66559e-006 0.0398131 -18.7991 68.028 19.559 8.12779 25.2332 -3.48389 -172.623 -3.64594 -1.46344 4.54188e-006 -4.6773e-006 -1.14709 -1.57628 -8.66144 0.396411 -3.98429e-006 -1.802e-007 -0.220348 21.7683 71.7346 -23.218 -8.1365 25.2327 3.48765 
44.2248 85.6423 0.719292 -2.41314 -3.50093 -1.91825 0.424769 -1.17779 -0.0375868 0.850759 1.63589 -0.115481 0.852862 3.28085 -0.129838 -3.98175 6.0354 1.46319 2.46576 5.08352 0.530054 55.8463 1.58921 1.45037 112.396 14.0773 1.65138 -9.87315e-008 9.28793e-008 -3.61156e-006 14.5796 9.92711 -1.66922 1.30744e-006 1.28815e-007 -3.0029 8.0289 -4.95141 0.697683 -54.4831 -3.62107 1.85975 -111.464 16.9839 3.77503 -1.61681e-005 -5.67665e-006 3.51474e-006 -13.0546 8.80001 1.54864 1.18805e-005 -1.96975e-006 3.00002 -8.02886 -4.95142 -0.697668 175.746 -2.80617 0.891289 180 7.01524e-015 178.829 176.777 4.65654 179.787 -7.92036e-007 2.66559e-006 0.0398131 -18.7986 68.0274 19.5585 8.12779 25.2332 -3.48389 -172.623 -3.6486 -1.46452 4.54188e-006 -4.6773e-006 -1.14709 -1.57698 -8.66119 0.396313 -3.98429e-006 -1.802e-007 -0.220343 21.7661 71.7324 -23.2169 -8.1365 25.2327 3.48765 
